<?xml version="1.0" encoding="utf-8"?>
<!-- Generator: Adobe Illustrator 27.3.1, SVG Export Plug-In . SVG Version: 6.00 Build 0)  -->
<svg version="1.1" xmlns="http://www.w3.org/2000/svg" xmlns:xlink="http://www.w3.org/1999/xlink" x="0px" y="0px"
	 viewBox="0 0 750 500" style="enable-background:new 0 0 750 500;" xml:space="preserve">
<style type="text/css">
	.st0{fill:#FFFFFF;}
	.st1{fill:#00DAFF;}
	.st2{fill:#98A3F4;}
	.st3{fill:#7284DD;}
	.st4{fill:none;stroke:#2B284F;stroke-miterlimit:10;}
	.st5{fill:#4958ED;}
	.st6{fill:#3248B2;}
	.st7{fill:#ADC4FF;}
	.st8{fill:#6A92E2;}
	.st9{fill:#8090E0;}
	.st10{fill:#7CBFF2;}
	.st11{fill:#6DABD1;}
	.st12{fill:none;stroke:#2B284F;stroke-width:3;stroke-linecap:round;stroke-miterlimit:10;}
	.st13{fill:none;stroke:#D2D9FF;stroke-width:3;stroke-linecap:round;stroke-miterlimit:10;}
	.st14{fill:#E9EFFF;}
	.st15{fill:#2B284F;}
	
		.st16{clip-path:url(#SVGID_00000025421894876903728730000002913386103692681391_);fill:none;stroke:#FFFFFF;stroke-width:5;stroke-linecap:round;stroke-linejoin:round;stroke-miterlimit:10;}
	.st17{fill:#7DA2FF;}
	.st18{fill:#BC4D88;}
	.st19{fill:#E1625D;}
	.st20{fill:url(#SVGID_00000005980561878156097250000005618665262162747573_);}
	.st21{fill:none;stroke:#98A3F4;stroke-linecap:round;stroke-linejoin:round;stroke-miterlimit:10;}
	.st22{fill:#E5827C;}
	.st23{fill:#252E64;}
	.st24{fill:#ECB32B;}
	.st25{fill:#211D35;}
	.st26{fill:#4358BC;}
	.st27{fill:#CC9527;}
	.st28{fill:#873548;}
	.st29{fill:#242C67;}
	.st30{fill:#FFDF9F;}
	.st31{clip-path:url(#SVGID_00000163062996528750027750000016595709036607068084_);}
	.st32{fill:none;stroke:#FFFFFF;stroke-width:5;stroke-linecap:round;stroke-linejoin:round;stroke-miterlimit:10;}
</style>
<g id="BACKGROUND">
	<rect class="st0" width="750" height="500"/>
</g>
<g id="OBJECTS">
	<path class="st1" d="M193.5,355.7c0,0-37.6-16-53.2-56.6c-15.5-40.6-2.2-68,26.6-70.9c28.8-2.9,31.1-26.5,30.7-64.2
		s49.8-76,117-88.6s81.9,28.1,119.6,34.7c37.6,6.6,109.3-1.5,129.9,17c20.7,18.5,29.5,51.1,11.8,96.8c-17.7,45.7-5.8,59,10.8,86.3
		c16.5,27.3,15.8,62.7-7.1,87.1H231.9C231.9,397.2,226.1,379.7,193.5,355.7z"/>
	<g>
		<g>
			<path class="st2" d="M544.7,397.2c0,0-3.4-4.5,2.3-10.2c0,0-3.3-19.2,16.3-21.8c0,0,3.7-12.9,14.8-14.4
				c11.1-1.5,19.9,5.5,22.5,15.1c0,0,8.5-3,16.2,2.2c7.8,5.2,7,15.9,7,15.9s8.5,3,5.2,13.1H544.7z"/>
			<path class="st3" d="M572.9,389c-5.9-0.7-7.2-7.6-3.7-12.8c3.5-5.2,12.2-2.3,12.2-2.3s-7.4-5.1-3.7-12.9c2.5-5.3,6.7-8.2,9.1-9.5
				c-2.7-0.8-5.7-1.1-8.8-0.7c-11.1,1.5-14.8,14.4-14.8,14.4C543.7,367.8,547,387,547,387c-5.7,5.7-2.3,10.2-2.3,10.2h27
				C570.5,393.4,572.9,389,572.9,389z"/>
			<line class="st4" x1="582" y1="397.2" x2="582" y2="367.6"/>
			<line class="st4" x1="567.5" y1="373.9" x2="582" y2="385.8"/>
			<line class="st4" x1="582" y1="392.2" x2="602.2" y2="379.9"/>
		</g>
		<g>
			<path class="st5" d="M509.2,395.5c0,0-5.9-10.1-7.4-20.7c-1.5-10.6,0.5-20.9,3.7-20.7c3.2,0.2,5.3,9.1,10.4,5.9
				c5.1-3.2,1.5-22.1,5.9-37.4c4.3-15.3,13.3-18.8,18-16.4c4.7,2.4,0.2,25.8,6.4,23.6c6.2-2.2,1.7-23.9,18.5-38.9
				c16.7-15,21.4-6.6,19.4,0c-2,6.6-22.1,33.2-18.7,41.1c3.4,7.9,12.7-0.2,19.1,3.4c6.5,3.7-1.9,14.5-14.7,19.4
				c-12.8,4.9-9.4,8.1-3.7,12.8c5.7,4.7,12.8,17.7-5.2,23.6C542.9,397.2,515.1,400.7,509.2,395.5z"/>
			<path class="st6" d="M510.4,396.3c3.6-4.9,10.4-14.4,18.8-27.3c12.4-19.2,25.1-40.8,32.3-56.2c4.7-10.1,14.1-22.5,20-29.9
				c-3-1.1-8.4,0.5-16.8,8.1c-16.7,15-12.3,36.7-18.5,38.9c-6.2,2.2-1.7-21.2-6.4-23.6c-4.7-2.4-13.6,1.2-18,16.4
				c-4.3,15.3-0.7,34.2-5.9,37.4c-5.1,3.2-7.2-5.7-10.4-5.9c-3.2-0.2-5.2,10.1-3.7,20.7c1.5,10.6,7.4,20.7,7.4,20.7
				C509.6,395.8,509.9,396,510.4,396.3z"/>
			<line class="st4" x1="510.4" y1="396.3" x2="549.1" y2="337.7"/>
			<line class="st4" x1="529.1" y1="332" x2="533.8" y2="361"/>
			<line class="st4" x1="522.7" y1="377.6" x2="558.4" y2="377.3"/>
		</g>
	</g>
	<g>
		<path class="st7" d="M135.2,124.5h110.2c0,0,0.5-4.4-7.4-10.6c-7.9-6.2-5.4-13.3-16-15c-10.6-1.7-12.8,5.7-20.7,1.5
			C193.5,96.2,193,89,182,87.8c-11.1-1.2-15.3,16.7-20.4,18.3c-5.2,1.6-20.4,1.6-24.1,8.5C133.7,121.5,135.2,124.5,135.2,124.5z"/>
		<path class="st7" d="M472.4,97.8h115.9c0,0-0.9-6.5-13.5-8.9c-12.5-2.4-10.5-8.3-17.7-12.5c-7.2-4.2-5.2-13.1-17.2-13.7
			c-12-0.6-16.2,17.5-21.8,17.5c-5.5,0-8.7-9.1-18.3,0c-9.6,9-17.2,8.1-22.7,9.4C471.6,91,472.4,97.8,472.4,97.8z"/>
		<path class="st8" d="M174.4,108.6c0.9-9.1,6-16.1,10.2-20.4c-0.8-0.2-1.7-0.3-2.6-0.4c-11.1-1.2-15.3,16.7-20.4,18.3
			c-5.2,1.6-20.4,1.6-24.1,8.5c-3.7,6.9-2.2,9.8-2.2,9.8H185C178.8,120.3,173.8,114.9,174.4,108.6z"/>
		<path class="st8" d="M524.3,87.8c-1.3-7.3,2.9-15.7,6.6-21.4c-5.6,5.1-8.9,13.9-12.7,13.9c-5.5,0-8.7-9.1-18.3,0
			c-9.6,9-17.2,8.1-22.7,9.4c-5.5,1.3-4.8,8.1-4.8,8.1h61.4C528.7,94.8,524.9,91.5,524.3,87.8z"/>
	</g>
	<g>
		<g>
			<path class="st2" d="M188,261.2c0,0,6.2,14.8-7,21c-13.3,6.3-12.2,19.3-8.9,26.6c3.3,7.3,6.6,18.4-5.5,29.8
				c-12.2,11.4-18.1,23.3-14.8,39.9c3.3,16.6,14.4,18.7,14.4,18.7H233c0,0,20.7-18.7,6.3-46.6c-14.4-27.9-14-29.6-10.7-41.8
				c3.3-12.2,3.7-15.9-7.8-30.7c-11.4-14.8-2.1-37.3-4.5-45.4c-2.5-8.1-13.9-13.7-22.4-5.9C185.4,234.6,182.5,244.9,188,261.2z"/>
			<path class="st9" d="M202.7,223.1c-3,0.1-6.1,1.2-8.9,3.7c-8.5,7.8-11.4,18.1-5.9,34.3c0,0,6.2,14.8-7,21
				c-13.3,6.3-12.2,19.3-8.9,26.6c3.3,7.3,6.6,18.4-5.5,29.8c-12.2,11.4-18.1,23.3-14.8,39.9c3.3,16.6,14.4,18.7,14.4,18.7h36.6
				V223.1z"/>
			<line class="st4" x1="203" y1="397.2" x2="203" y2="308.8"/>
			<line class="st4" x1="192.2" y1="335.3" x2="203" y2="350.7"/>
			<line class="st4" x1="203" y1="376" x2="225.9" y2="353"/>
		</g>
		<g>
			<path class="st10" d="M112.6,397.2c0,0-3.4-4.5,2.3-10.2c0,0-3.3-19.2,16.3-21.8c0,0,3.7-12.9,14.8-14.4
				c11.1-1.5,19.9,5.5,22.5,15.1c0,0,8.5-3,16.2,2.2c7.8,5.2,7,15.9,7,15.9s8.5,3,5.2,13.1H112.6z"/>
			<path class="st11" d="M134.9,387c2-12.9,16.4-11.1,16.4-11.1s-10.5-2.1-9.6-12c0.7-6.6,5.4-11,8.5-13.2c-1.4-0.1-2.8-0.1-4.3,0.1
				c-11.1,1.5-14.8,14.4-14.8,14.4c-19.6,2.6-16.3,21.8-16.3,21.8c-5.7,5.7-2.3,10.2-2.3,10.2h25.1
				C135.5,394.8,134.2,391.5,134.9,387z"/>
			<line class="st4" x1="151.2" y1="397.2" x2="151.2" y2="367.6"/>
			<line class="st4" x1="136.6" y1="373.9" x2="151.2" y2="385.8"/>
			<line class="st4" x1="151.2" y1="392.2" x2="171.3" y2="379.9"/>
		</g>
	</g>
	<line class="st12" x1="103.9" y1="397.2" x2="636.9" y2="397.2"/>
	<g>
		<line class="st13" x1="225.9" y1="420.2" x2="311.6" y2="420.2"/>
		<line class="st13" x1="201.8" y1="435.5" x2="258.1" y2="435.5"/>
		<line class="st13" x1="462.2" y1="440.4" x2="564.6" y2="440.4"/>
		<line class="st13" x1="436" y1="458.1" x2="482.1" y2="458.1"/>
	</g>
	<path class="st14" d="M511.8,359.8H230c-7.9,0-14.3-6.4-14.3-14.3V132.8c0-7.9,6.4-14.3,14.3-14.3h281.8c7.9,0,14.3,6.4,14.3,14.3
		v212.6C526.1,353.4,519.7,359.8,511.8,359.8z"/>
	<path class="st15" d="M526.1,319V134.7c0-9-7.3-16.2-16.2-16.2H231.9c-9,0-16.2,7.3-16.2,16.2V319H526.1z"/>
	<path class="st1" d="M510.3,308.8H231.5c-3.1,0-5.6-2.5-5.6-5.6V134.3c0-3.1,2.5-5.6,5.6-5.6h278.8c3.1,0,5.6,2.5,5.6,5.6v168.9
		C515.9,306.3,513.4,308.8,510.3,308.8z"/>
	<g>
		<defs>
			<path id="SVGID_1_" d="M510.3,308.8H231.5c-3.1,0-5.6-2.5-5.6-5.6V134.3c0-3.1,2.5-5.6,5.6-5.6h278.8c3.1,0,5.6,2.5,5.6,5.6
				v168.9C515.9,306.3,513.4,308.8,510.3,308.8z"/>
		</defs>
		<clipPath id="SVGID_00000119822645845676993130000000555712131551995049_">
			<use xlink:href="#SVGID_1_"  style="overflow:visible;"/>
		</clipPath>
		
			<line style="clip-path:url(#SVGID_00000119822645845676993130000000555712131551995049_);fill:none;stroke:#FFFFFF;stroke-width:5;stroke-linecap:round;stroke-linejoin:round;stroke-miterlimit:10;" x1="225.9" y1="160" x2="279.5" y2="231.5"/>
		
			<line style="clip-path:url(#SVGID_00000119822645845676993130000000555712131551995049_);fill:none;stroke:#FFFFFF;stroke-width:5;stroke-linecap:round;stroke-linejoin:round;stroke-miterlimit:10;" x1="225.9" y1="270.1" x2="427" y2="128.7"/>
		
			<line style="clip-path:url(#SVGID_00000119822645845676993130000000555712131551995049_);fill:none;stroke:#FFFFFF;stroke-width:5;stroke-linecap:round;stroke-linejoin:round;stroke-miterlimit:10;" x1="303.2" y1="128.7" x2="343.9" y2="187.2"/>
		
			<line style="clip-path:url(#SVGID_00000119822645845676993130000000555712131551995049_);fill:none;stroke:#FFFFFF;stroke-width:5;stroke-linecap:round;stroke-linejoin:round;stroke-miterlimit:10;" x1="245.5" y1="186.1" x2="311.6" y2="140.9"/>
		
			<line style="clip-path:url(#SVGID_00000119822645845676993130000000555712131551995049_);fill:none;stroke:#FFFFFF;stroke-width:5;stroke-linecap:round;stroke-linejoin:round;stroke-miterlimit:10;" x1="264.4" y1="211.4" x2="329.8" y2="167"/>
		
			<line style="clip-path:url(#SVGID_00000119822645845676993130000000555712131551995049_);fill:none;stroke:#FFFFFF;stroke-width:5;stroke-linecap:round;stroke-linejoin:round;stroke-miterlimit:10;" x1="286.9" y1="308.8" x2="436" y2="195.3"/>
		
			<line style="clip-path:url(#SVGID_00000119822645845676993130000000555712131551995049_);fill:none;stroke:#FFFFFF;stroke-width:5;stroke-linecap:round;stroke-linejoin:round;stroke-miterlimit:10;" x1="290.1" y1="225" x2="351.9" y2="308.8"/>
		
			<line style="clip-path:url(#SVGID_00000119822645845676993130000000555712131551995049_);fill:none;stroke:#FFFFFF;stroke-width:5;stroke-linecap:round;stroke-linejoin:round;stroke-miterlimit:10;" x1="383" y1="236.1" x2="437.9" y2="308.8"/>
		
			<polyline style="clip-path:url(#SVGID_00000119822645845676993130000000555712131551995049_);fill:none;stroke:#FFFFFF;stroke-width:5;stroke-linecap:round;stroke-linejoin:round;stroke-miterlimit:10;" points="
			475.9,128.7 417.4,170.7 515.9,302.4 		"/>
		
			<line style="clip-path:url(#SVGID_00000119822645845676993130000000555712131551995049_);fill:none;stroke:#FFFFFF;stroke-width:5;stroke-linecap:round;stroke-linejoin:round;stroke-miterlimit:10;" x1="458" y1="225" x2="515.9" y2="181.3"/>
		
			<line style="clip-path:url(#SVGID_00000119822645845676993130000000555712131551995049_);fill:none;stroke:#FFFFFF;stroke-width:5;stroke-linecap:round;stroke-linejoin:round;stroke-miterlimit:10;" x1="466.6" y1="135.3" x2="508.2" y2="187.2"/>
	</g>
	<polygon class="st14" points="346.8,359.8 333.5,414.2 404.9,414.2 395.1,359.8 	"/>
	<polygon class="st17" points="346.8,359.8 344.9,367.6 396.5,367.6 395.1,359.8 	"/>
	<path class="st18" d="M349.3,168c0-13.2-11-23.7-24.3-23c-9.6,0.5-18,7.2-20.8,16.4c-1.4,4.6-1.2,8.9-0.1,12.8h0
		c2.5,10.3,14.3,21.4,19.6,26c1.5,1.3,3.7,1.3,5.2,0c5.3-4.5,17.1-15.6,19.6-26h0C349,172.2,349.3,170.1,349.3,168z"/>
	<path class="st19" d="M329.4,257.3c0-5.1-4.3-9.2-9.4-8.9c-3.7,0.2-6.9,2.8-8,6.3c-0.5,1.8-0.5,3.4-0.1,5h0c1,4,5.5,8.3,7.6,10
		c0.6,0.5,1.4,0.5,2,0c2-1.8,6.6-6,7.6-10h0C329.3,258.9,329.4,258.1,329.4,257.3z"/>
	<path class="st19" d="M463.2,173.3c0-5.1-4.3-9.2-9.4-8.9c-3.7,0.2-6.9,2.8-8,6.3c-0.5,1.8-0.5,3.4-0.1,5h0c1,4,5.5,8.3,7.6,10
		c0.6,0.5,1.4,0.5,2,0c2-1.8,6.6-6,7.6-10h0C463.1,175,463.2,174.2,463.2,173.3z"/>
	<path class="st19" d="M400.8,265c0-5.1-4.3-9.2-9.4-8.9c-3.7,0.2-6.9,2.8-8,6.3c-0.5,1.8-0.5,3.4-0.1,5h0c1,4,5.5,8.3,7.6,10
		c0.6,0.5,1.4,0.5,2,0c2-1.8,6.6-6,7.6-10h0C400.7,266.6,400.8,265.8,400.8,265z"/>
	<path class="st19" d="M275.9,216.8c0-5.1-4.3-9.2-9.4-8.9c-3.7,0.2-6.9,2.8-8,6.3c-0.5,1.8-0.5,3.4-0.1,5h0c1,4,5.5,8.3,7.6,10
		c0.6,0.5,1.4,0.5,2,0c2-1.8,6.6-6,7.6-10h0C275.8,218.5,275.9,217.7,275.9,216.8z"/>
	<polygon class="st0" points="329.4,160 329.4,165.6 323.8,160 317.8,165.6 317.8,181.3 334.6,181.3 334.6,168.3 334.6,165.6 
		334.6,160 	"/>
	
		<linearGradient id="SVGID_00000073720560918755580320000006452496779421692072_" gradientUnits="userSpaceOnUse" x1="443.7649" y1="157.2322" x2="251.7652" y2="307.5303">
		<stop  offset="0" style="stop-color:#FFFFFF;stop-opacity:0.7"/>
		<stop  offset="1" style="stop-color:#FFFFFF;stop-opacity:0"/>
	</linearGradient>
	<polygon style="fill:url(#SVGID_00000073720560918755580320000006452496779421692072_);" points="215.7,319 482.1,118.5 
		514.6,118.5 246.9,319 	"/>
	<g>
		<g>
			<line class="st21" x1="418.1" y1="62.7" x2="418.1" y2="67.6"/>
			<line class="st21" x1="418.1" y1="70.1" x2="418.1" y2="75"/>
			<line class="st21" x1="424.2" y1="68.9" x2="419.3" y2="68.9"/>
			<line class="st21" x1="416.8" y1="68.9" x2="412" y2="68.9"/>
		</g>
		<path class="st21" d="M332.5,42.2c0,1.7-1.4,3.1-3.1,3.1c-1.7,0-3.1-1.4-3.1-3.1c0-1.7,1.4-3.1,3.1-3.1
			C331.1,39.2,332.5,40.5,332.5,42.2z"/>
	</g>
	<g>
		<g>
			<line class="st21" x1="602.2" y1="212.7" x2="602.2" y2="217.5"/>
			<line class="st21" x1="602.2" y1="220" x2="602.2" y2="224.9"/>
			<line class="st21" x1="608.3" y1="218.8" x2="603.4" y2="218.8"/>
			<line class="st21" x1="601" y1="218.8" x2="596.1" y2="218.8"/>
		</g>
		<g>
			<line class="st21" x1="629.7" y1="312.9" x2="629.7" y2="317.8"/>
			<line class="st21" x1="629.7" y1="320.3" x2="629.7" y2="325.1"/>
			<line class="st21" x1="635.8" y1="319" x2="630.9" y2="319"/>
			<line class="st21" x1="628.5" y1="319" x2="623.6" y2="319"/>
		</g>
		<g>
			<line class="st21" x1="671.8" y1="271.6" x2="671.8" y2="276.5"/>
			<line class="st21" x1="671.8" y1="279" x2="671.8" y2="283.9"/>
			<line class="st21" x1="677.9" y1="277.7" x2="673" y2="277.7"/>
			<line class="st21" x1="670.5" y1="277.7" x2="665.6" y2="277.7"/>
		</g>
		<path class="st21" d="M654,245.7c0,1.7-1.4,3.1-3.1,3.1c-1.7,0-3.1-1.4-3.1-3.1s1.4-3.1,3.1-3.1C652.7,242.6,654,244,654,245.7z"
			/>
		<path class="st21" d="M636.4,166.8c0,1.7-1.4,3.1-3.1,3.1c-1.7,0-3.1-1.4-3.1-3.1c0-1.7,1.4-3.1,3.1-3.1
			C635.1,163.7,636.4,165.1,636.4,166.8z"/>
	</g>
	<g>
		<g>
			<line class="st21" x1="136.6" y1="181.4" x2="136.6" y2="186.3"/>
			<line class="st21" x1="136.6" y1="188.7" x2="136.6" y2="193.6"/>
			<line class="st21" x1="142.7" y1="187.5" x2="137.9" y2="187.5"/>
			<line class="st21" x1="135.4" y1="187.5" x2="130.5" y2="187.5"/>
		</g>
		<g>
			<line class="st21" x1="97.8" y1="242.3" x2="97.8" y2="247.2"/>
			<line class="st21" x1="97.8" y1="249.6" x2="97.8" y2="254.5"/>
			<line class="st21" x1="103.9" y1="248.4" x2="99" y2="248.4"/>
			<line class="st21" x1="96.6" y1="248.4" x2="91.7" y2="248.4"/>
		</g>
		<path class="st21" d="M97.8,291.5c0,1.7-1.4,3.1-3.1,3.1c-1.7,0-3.1-1.4-3.1-3.1c0-1.7,1.4-3.1,3.1-3.1
			C96.4,288.4,97.8,289.8,97.8,291.5z"/>
		<path class="st21" d="M99.6,157c0,1.7-1.4,3.1-3.1,3.1s-3.1-1.4-3.1-3.1c0-1.7,1.4-3.1,3.1-3.1S99.6,155.3,99.6,157z"/>
		<path class="st21" d="M177.4,160c0,1.7-1.4,3.1-3.1,3.1c-1.7,0-3.1-1.4-3.1-3.1c0-1.7,1.4-3.1,3.1-3.1
			C176.1,157,177.4,158.3,177.4,160z"/>
	</g>
	<path class="st22" d="M493,220.9c0,0-3.6,5.5-5.7,11.7c0,0-1.9-0.4-3,1c-1,1.5,0.7,3.2,0.7,3.2s-2.2,3.4-1.5,7.3
		c0.7,3.9,8.3,6.5,8.3,6.5l-2,4.5c0,0,3.7,0.9,5.2,2.7l4.1-9c0,0,5.2-0.2,6.3-3.6c1.1-3.4-0.7-7.9-5.1-4.7
		C500.3,240.6,489.9,231.8,493,220.9z"/>
	<path class="st23" d="M518.1,228.3c0,0,2.3-6.1-0.9-12.5c-3.2-6.5-11.4-7.8-19.6-4.2c0,0-2.4-5.3-9.4-2.8c-7,2.5-7.8,13.8-0.2,22
		c2.1-5.4,5-9.9,5-9.9c-3.1,10.9,7.4,19.7,7.4,19.7c4.3-3.2,6.2,1.3,5.1,4.7c-1.1,3.4-6.3,3.6-6.3,3.6l-2,4.4l0,0c0,0,2.7,6,10.3,3
		c7.6-3,12-14.5,12.4-19.6C520.2,231.6,518.1,228.3,518.1,228.3z"/>
	<path class="st24" d="M489.9,255.2c0,0-4.2-0.1-6.4,3.1c-2.2,3.2-13.7,38.4-15.5,45.9c-1.8,7.5-1.2,8-1.2,8s20,5.2,27.9,1.3
		c0,0,1.6-23.1,1.9-30.5c0.4-7.4,2.5-19.8-1.5-25.2C495.1,257.8,493,255.6,489.9,255.2z"/>
	<path class="st25" d="M466.8,312.2c0,0-0.2-0.2,0-2.1l-0.1,0c0,0-9,50.1-10.2,53.6c-1.3,3.5-10.3,37-14.4,47.7c0,0,5.3,4.5,9.1,3.8
		c0,0,12.3-25.9,15.3-36.1c3-10.2,1.6-12,1.7-13.4c0.1-1.4,26.5-52.1,26.5-52.1C486.8,317.4,466.8,312.2,466.8,312.2z"/>
	<path class="st26" d="M442,411.3c0,0-10.4,8.9-12,11h21.3c0,0,0.4-3.6-0.5-7.1C447.1,415.6,442,411.3,442,411.3z"/>
	<path class="st26" d="M495,414.2c-3.2,2.1-9.8,0-9.8,0s-9.1,6-10.7,8.1h21.3C495.8,422.3,496.3,417.9,495,414.2z"/>
	<path class="st27" d="M489.9,255.2c0,0-6.6-1.5-19.1,2.7c-12.4,4.2-12.4,4.2-12.4,4.2s0.9,7.3,6.5,11c5.7,3.7,17.1,4.6,19,2.1
		C485.9,272.6,489.9,255.2,489.9,255.2z"/>
	<g>
		<path class="st28" d="M503.8,243.3c-0.2-0.6-0.6-1-1-1c-0.2,0-0.4,0-0.5,0.1c-0.1,0.1-0.3,0.3-0.5,0.4c-0.3,0.4-0.6,0.9-0.8,1.4
			c-0.3,0.5-0.6,1-0.9,1.5c-0.1-0.6,0-1.2,0.2-1.8c0.2-0.6,0.4-1.2,0.8-1.7c0.2-0.3,0.4-0.5,0.9-0.7c0.4-0.2,0.8-0.1,1.2,0
			c0.4,0.2,0.6,0.5,0.7,0.8C503.9,242.6,503.9,243,503.8,243.3z"/>
	</g>
	<path class="st28" d="M485.1,239.4l5.5,1.8c0,0-1.1,3.8-4.8,3.5S485.1,239.4,485.1,239.4z"/>
	<path class="st23" d="M492.1,233.6c-0.5,1.1-1.4,1.7-2,1.4c-0.7-0.3-0.8-1.4-0.4-2.4c0.5-1.1,1.4-1.7,2-1.4
		S492.5,232.5,492.1,233.6z"/>
	<polygon class="st29" points="473.9,261.6 419.2,215.2 412,223.6 466.6,270.1 	"/>
	<path class="st30" d="M489.9,255.2c0,0-5.5-1.4-10.5,13.2c0,0-1.5,4.8-2.6,5.2c-1,0.5-5.5-3.4-12.5-6.6c-7-3.1-12.9-7.5-12.9-7.5
		s-3.2,4-3.4,7.4c0,0,20.9,16.8,28.9,20.6c8,3.8,13.7-4.6,15.7-11.1c2-6.5,4.9-13.2,4-15.5C495.6,258.7,494.5,256.1,489.9,255.2z"/>
	<path class="st22" d="M429.8,238.8c0,0-0.7,2.9,0.4,4.9c1.1,2,1.1,2,1.1,2s0.6,4.4,3,5.9c2.4,1.5,5.5,1.6,8.2-2.1l-2.8-2.4
		c0,0,2.2-7,1.2-9.2c-1-2.2-6.5-0.9-8,3.5L429.8,238.8z"/>
	<path class="st22" d="M448,266.9c0,0-7-5-8-6.9c-1-1.9-0.4-12.8-0.4-12.8l5,4.3c0,0-1.1-2.2,0.5-2.9s4.1,1.6,4.9,3.3
		c0.8,1.8,0,4.2,0,4.2l1.4,3.5C451.4,259.5,449.4,260.9,448,266.9z"/>
	<path class="st15" d="M491.3,361.9c-0.5-1.4,3.3-48.4,3.3-48.4c-6.2,3.1-20,0.5-25.5-0.7c0,0,10.5,48.3,10.7,52
		c0.2,3.7,5,38.1,5.4,49.5c0,0,6.6,2.1,9.8,0c0,0,1.2-28.7,0-39.2C493.7,364.4,491.8,363.3,491.3,361.9z"/>
	<circle class="st15" cx="389" cy="195.3" r="38"/>
	<circle class="st1" cx="389" cy="195.3" r="31.6"/>
	<g>
		<defs>
			<circle id="SVGID_00000141447739409070381840000003562829903991392385_" cx="389" cy="195.3" r="31.6"/>
		</defs>
		<clipPath id="SVGID_00000001642054939721008840000014596034121475507897_">
			<use xlink:href="#SVGID_00000141447739409070381840000003562829903991392385_"  style="overflow:visible;"/>
		</clipPath>
		<g style="clip-path:url(#SVGID_00000001642054939721008840000014596034121475507897_);">
			<line class="st32" x1="293.8" y1="167.9" x2="356.6" y2="251.8"/>
			<line class="st32" x1="293.8" y1="297" x2="529.7" y2="131.2"/>
			<line class="st32" x1="384.4" y1="131.2" x2="432.1" y2="199.8"/>
			<line class="st32" x1="316.7" y1="198.6" x2="394.3" y2="145.5"/>
			<line class="st32" x1="338.9" y1="228.2" x2="415.7" y2="176.1"/>
			<line class="st32" x1="365.3" y1="342.5" x2="540.2" y2="209.4"/>
			<line class="st32" x1="369.1" y1="244.1" x2="441.5" y2="342.5"/>
			<line class="st32" x1="478.1" y1="257.2" x2="542.4" y2="342.5"/>
			<polyline class="st32" points="587,131.2 518.4,180.4 633.9,335 			"/>
			<line class="st32" x1="566" y1="244.1" x2="633.9" y2="192.9"/>
			<line class="st32" x1="576.1" y1="139" x2="624.8" y2="199.8"/>
		</g>
	</g>
	<g>
		<path class="st0" d="M373.6,170.8c-4.7,2.5-8.6,6.7-10.8,11.6c-0.4,0.9-0.6,1.7-0.3,2.6c0.2,0.8,0.8,1.6,1.6,2
			c0.8,0.4,1.7,0.6,2.6,0.3c0.8-0.3,1.7-0.8,2-1.6c0.7-1.6,1.6-3.1,2.7-4.6c-0.2,0.2-0.4,0.5-0.5,0.7c1.1-1.4,2.4-2.7,3.9-3.9
			c-0.2,0.2-0.5,0.4-0.7,0.5c0.9-0.7,1.9-1.4,3-1.9c1.6-0.9,2.2-3.1,1.2-4.7C377.2,170.4,375.3,169.9,373.6,170.8L373.6,170.8z"/>
	</g>
	<path class="st0" d="M388.2,170.5c0,2.1-1.7,3.7-3.7,3.7c-2.1,0-3.7-1.7-3.7-3.7s1.7-3.7,3.7-3.7
		C386.5,166.8,388.2,168.5,388.2,170.5z"/>
</g>
<g id="DESIGNED_BY_FREEPIK">
</g>
</svg>
